




<svg version="1.1" xmlns="http://www.w3.org/2000/svg" style="display: block;" viewBox="0 0 2048 2048" width="1024" height="1024" preserveAspectRatio="none"><path transform="translate(0,0)" fill="rgb(239,232,218)" d="M 0 0 L 2048 0 L 2048 2048 L 0 2048 L 0 1667.49 L 0 1497.07 L 0 1471.73 L 0 1405.77 L 0 1107.04 L 0 674.938 L 0 438.913 L 0 372.204 L 0 0 z"></path><path transform="translate(0,0)" fill="rgb(239,232,218)" d="M 0 0 L 2048 0 L 2048 2048 L 0 2048 L 0 1667.49 C 96.7175 1685.63 193.659 1702.56 290.801 1718.27 C 422.967 1740.29 555.527 1759.88 688.413 1777.02 C 850.635 1798.68 1013.52 1815.01 1176.82 1825.99 C 1368.21 1838.97 1562.57 1844.07 1753.8 1824.2 C 1822.95 1815.33 1898.46 1809.32 1961.56 1777.46 C 1976.63 1767.93 1983.17 1760.33 1975.74 1743.63 C 1958.22 1704.25 1931.13 1670.05 1906.48 1634.64 L 1800.67 1482.92 C 1844.05 1437.4 1884.84 1375.31 1908.52 1317.13 C 1950.83 1212.58 1949.63 1095.46 1905.18 991.793 C 1845.35 850.664 1702.53 733.464 1570.64 662.056 C 1535.93 643.263 1503.44 629.102 1467.17 614.443 C 1445.63 582.562 1422.61 552.327 1399.43 521.647 C 1393.57 513.896 1387.77 505.867 1381.47 498.477 C 1334.48 443.665 1276.53 399.308 1211.35 368.266 C 1125.71 327.273 1024.81 302.506 931.208 286.357 C 831.844 269.09 731.155 260.583 630.302 260.936 C 404.345 260.73 212.605 297.295 0 372.204 L 0 0 z"></path><path transform="translate(0,0)" fill="rgb(38,79,118)" d="M 0 372.204 C 212.605 297.295 404.345 260.73 630.302 260.936 C 731.155 260.583 831.844 269.09 931.208 286.357 C 1024.81 302.506 1125.71 327.273 1211.35 368.266 C 1276.53 399.308 1334.48 443.665 1381.47 498.477 C 1387.77 505.867 1393.57 513.896 1399.43 521.647 C 1422.61 552.327 1445.63 582.562 1467.17 614.443 C 1503.44 629.102 1535.93 643.263 1570.64 662.056 C 1702.53 733.464 1845.35 850.664 1905.18 991.793 C 1949.63 1095.46 1950.83 1212.58 1908.52 1317.13 C 1884.84 1375.31 1844.05 1437.4 1800.67 1482.92 L 1906.48 1634.64 C 1931.13 1670.05 1958.22 1704.25 1975.74 1743.63 C 1983.17 1760.33 1976.63 1767.93 1961.56 1777.46 C 1898.46 1809.32 1822.95 1815.33 1753.8 1824.2 C 1562.57 1844.07 1368.21 1838.97 1176.82 1825.99 C 1013.52 1815.01 850.635 1798.68 688.413 1777.02 C 555.527 1759.88 422.967 1740.29 290.801 1718.27 C 193.659 1702.56 96.7175 1685.63 0 1667.49 L 0 1497.07 L 0 1471.73 L 0 1405.77 L 789.379 1490.55 C 1002.5 1513.63 1217.09 1542 1431.85 1540.58 C 1507.75 1540.07 1647.81 1536.16 1714.82 1503.29 C 1739.19 1491.33 1756.72 1475.62 1775.53 1456.53 C 1773.16 1457.64 1770.78 1458.71 1768.39 1459.76 C 1686.4 1495.46 1598.14 1492.25 1515.89 1459.86 C 1420.8 1421.66 1344.57 1347.56 1303.67 1253.6 C 1232.18 1087.98 1290.84 894.83 1462.3 821.933 C 1527.74 794.277 1600.25 788.052 1669.44 804.151 C 1693.18 809.906 1713.05 817.828 1735.63 826.913 L 1733.82 824.925 C 1581.85 659.321 1289.42 575.759 1070.26 566.632 C 1060.51 550.385 1050.51 530.781 1041.3 513.95 L 981.363 404.729 C 1062.87 408.043 1193.86 433.125 1269.22 462.233 C 1171.83 379.712 1030.72 346.658 907.389 326.596 C 834.523 315.116 760.977 308.464 687.234 306.682 C 431.785 300.037 237.25 348.702 0 438.913 L 0 372.204 z"></path><path transform="translate(0,0)" fill="rgb(239,232,218)" d="M 0 1471.73 C 39.9688 1478.76 82.9098 1483.77 123.197 1489.4 L 296.457 1514.23 L 376.305 1525.49 C 383.762 1526.55 403.568 1528.2 409.471 1530.33 C 428.628 1537.23 421.093 1561.98 399.254 1557.63 C 380.231 1555.25 361.933 1552.39 343.279 1549.46 L 254.432 1536.04 C 170.062 1523.07 84.036 1511.14 0 1497.07 L 0 1471.73 z"></path><path transform="translate(0,0)" fill="rgb(239,232,218)" d="M 1583.68 835.588 C 1592.25 834.769 1602.08 834.657 1610.75 834.672 C 1685.6 834.23 1757.41 864.266 1809.65 917.871 C 1868.53 977.102 1899.89 1055.93 1899.07 1139.37 C 1898.12 1234.7 1871.41 1339.12 1786.98 1394.57 C 1743.63 1423.04 1688.64 1437.45 1636.88 1437.04 C 1568.38 1435.06 1500.35 1405.83 1447.42 1363.11 C 1378.69 1308.31 1334.48 1228.51 1324.46 1141.19 C 1312.95 1031.73 1359.19 930.971 1455.31 875.022 C 1497.09 850.706 1536.29 840.554 1583.68 835.588 z"></path><path transform="translate(0,0)" fill="rgb(94,142,166)" d="M 1781.65 1525.62 C 1832.14 1600.25 1880.21 1676.47 1925.79 1754.19 C 1916.25 1755.67 1906.58 1757.08 1897.07 1758.66 C 1882.28 1760.86 1866.78 1762.26 1851.83 1764.15 C 1837.18 1735.04 1814.11 1699.27 1795.86 1672.04 C 1770.49 1634.46 1744.48 1597.32 1717.85 1560.62 C 1730.38 1553.52 1742.97 1546.52 1755.61 1539.63 C 1763.95 1535.14 1773.28 1529.86 1781.65 1525.62 z"></path><path transform="translate(0,0)" fill="rgb(147,186,198)" d="M 1781.65 1525.62 C 1832.14 1600.25 1880.21 1676.47 1925.79 1754.19 C 1916.25 1755.67 1906.58 1757.08 1897.07 1758.66 C 1892.1 1758.25 1891.12 1753.61 1888.67 1749.27 C 1863.45 1705.31 1836.83 1662.17 1808.85 1619.91 C 1791.72 1594.03 1771.46 1565.78 1755.61 1539.63 C 1763.95 1535.14 1773.28 1529.86 1781.65 1525.62 z"></path><path transform="translate(0,0)" fill="rgb(94,142,166)" d="M 1167.68 470.835 C 1219.07 479.338 1276.08 491.161 1327.14 501.83 C 1347.29 527.245 1370.09 563.128 1387.17 590.929 C 1376.66 588.534 1357.65 581.538 1346.82 577.889 C 1298.6 562.521 1236.4 538.74 1187.73 528.842 L 1244.45 520.151 C 1222.36 503.512 1190.37 487.988 1167.68 470.835 z"></path><path transform="translate(0,0)" fill="rgb(38,79,118)" d="M 0 674.938 L 79.7793 659.045 C 91.9047 656.699 111.412 653.657 122.825 650.631 L 121.039 1102.88 C 81.6387 1103.37 38.3346 1107.26 0 1107.04 L 0 674.938 z"></path><path transform="translate(0,0)" fill="rgb(38,79,118)" d="M 265.652 499.437 C 267.219 499.37 268.787 499.314 270.355 499.268 C 282.005 498.925 322.203 497.792 329.502 506.191 C 334.416 511.846 335.546 537.743 335.727 546.483 C 337.099 612.913 336.168 679.716 335.292 746.15 L 334.137 941.706 L 334.906 1161.84 C 334.949 1191.25 335.76 1220.92 334.782 1250.31 C 334.714 1252.35 334.776 1258.94 333.223 1260.09 C 322.389 1268.09 227.769 1265.55 208.669 1264.57 C 196.093 1263.93 152.856 1263.46 144.626 1255.97 C 133.491 1227.52 136.387 1014.76 136.45 971.968 L 136.772 712.838 L 136.851 603.754 C 136.848 588.689 135.715 530.022 139.027 520.315 C 154.688 507.332 242.585 500.564 265.652 499.437 z"></path><path transform="translate(0,0)" fill="rgb(239,232,218)" d="M 228.79 540.578 C 245.07 539.274 276.48 539.162 292.739 540.535 C 296.673 590.973 294.956 656.715 294.826 708.223 C 294.826 737.927 294.465 767.631 293.744 797.327 C 293.403 812.054 293.464 831.644 291.739 845.982 C 276.002 846.284 256.822 845.201 240.75 844.849 C 221.833 844.303 195.495 845.102 177.468 843.255 C 176.543 834.635 176.897 818.336 176.74 809.196 C 176.234 784.503 175.906 759.806 175.755 735.108 C 175.5 697.546 175.498 659.982 175.748 622.42 C 175.832 609.938 175.087 554.424 179.113 546.395 C 186.282 542.281 218.845 541.089 228.79 540.578 z"></path><path transform="translate(0,0)" fill="rgb(38,79,118)" d="M 352.631 697.434 C 530.439 736.331 689.302 892.461 719.18 1073.68 L 699.248 1074.73 C 669.343 1075.88 638.614 1078.1 608.648 1079.7 L 428.057 1089.1 C 404.114 1090.33 379.454 1092.37 355.599 1093.11 C 353.109 996.357 355.623 898.363 353.325 801.487 C 352.518 767.466 352.045 731.408 352.631 697.434 z"></path><path transform="translate(0,0)" fill="rgb(38,79,118)" d="M 877.404 404.491 C 904.085 404.22 930.769 404.412 957.443 405.065 C 985.684 458.676 1015.25 511.501 1042.82 565.74 C 999.936 565.95 960.95 566.161 917.981 569.488 C 842.403 575.341 766.84 585.415 692.013 597.252 C 665.008 601.058 636.989 606.359 610.197 609.539 C 604.603 594.272 595.07 573.354 588.583 557.846 C 572 518.592 555.701 479.219 539.687 439.729 C 651.004 418.078 764.015 406.286 877.404 404.491 z"></path><path transform="translate(0,0)" fill="rgb(38,79,118)" d="M 1044.3 986.988 C 1098.8 979.58 1148.96 1017.83 1156.23 1072.35 C 1163.5 1126.87 1125.12 1176.93 1070.58 1184.06 C 1016.24 1191.16 966.399 1152.95 959.156 1098.63 C 951.913 1044.31 989.999 994.37 1044.3 986.988 z"></path><path transform="translate(0,0)" fill="rgb(239,232,218)" d="M 1053.97 1028.55 C 1085.24 1026.42 1112.37 1049.93 1114.72 1081.19 C 1117.07 1112.46 1093.76 1139.76 1062.52 1142.33 C 1030.95 1144.93 1003.31 1121.33 1000.93 1089.75 C 998.56 1058.16 1022.37 1030.69 1053.97 1028.55 z"></path><path transform="translate(0,0)" fill="rgb(38,79,118)" d="M 510.07 447.381 L 512.264 447.736 C 519.703 462.62 528.504 485.935 535.173 502.018 C 549.852 537.017 564.179 572.163 578.15 607.45 C 564.978 611.071 541.704 615.136 527.662 617.97 L 434.495 636.79 C 428.031 637.933 420.145 639.93 413.625 641.397 C 398.191 587.197 384.956 528.51 370.57 473.52 C 393.959 468.6 417.598 464.54 441.104 460.188 C 464.038 455.942 487.051 451.062 510.07 447.381 z"></path></svg>